<?xml version="1.0" encoding="UTF-8"?>
<svg version="1.1" xmlns="http://www.w3.org/2000/svg" width="512" height="400">
<path  d="M0 0 C13.21449585 -0.06816281 26.42887221 -0.12303746 39.6435051 -0.15543652 C45.78160967 -0.17099755 51.91958625 -0.19205815 58.05761719 -0.22631836 C63.9969328 -0.25925656 69.93612642 -0.27692461 75.87552643 -0.28463173 C78.12537808 -0.29011409 80.37522414 -0.3008167 82.62502289 -0.31719017 C112.43132261 -0.52520329 138.64545704 4.50014628 164.75 19.4375 C166.35041138 20.34242188 166.35041138 20.34242188 167.9831543 21.265625 C176.60106802 26.15507785 185.16336323 31.14215849 193.68066406 36.20483398 C196.43798386 37.83250615 199.2152001 39.4198868 202 41 C203.42517944 41.84848511 203.42517944 41.84848511 204.87915039 42.71411133 C212.65827813 47.05297747 218.99587468 47.78972515 227.8125 47.6875 C230.45361759 47.71698748 233.09362101 47.75325344 235.734375 47.80078125 C236.40872086 47.81089233 237.08306671 47.82100342 237.77784729 47.8314209 C245.40656806 47.9729122 252.97183327 48.63667438 260.5625 49.375 C261.81458252 49.48932373 263.06666504 49.60364746 264.35668945 49.72143555 C272.42135602 50.52741635 280.15052631 51.9869779 288 54 C288 55.32 288 56.64 288 58 C282.06 58.495 282.06 58.495 276 59 C275.67 59.99 275.34 60.98 275 62 C278.64256363 68.96161009 284.33030465 76.44343488 292 79 C293.69867188 79.14777936 295.40177489 79.24747066 297.10546875 79.31640625 C298.08837891 79.35830078 299.07128906 79.40019531 300.08398438 79.44335938 C301.10814453 79.48267578 302.13230469 79.52199219 303.1875 79.5625 C304.74114258 79.62727539 304.74114258 79.62727539 306.32617188 79.69335938 C308.8839819 79.79944366 311.44188845 79.90150146 314 80 C314.13277344 80.67546875 314.26554687 81.3509375 314.40234375 82.046875 C314.57894531 82.93890625 314.75554687 83.8309375 314.9375 84.75 C315.19853516 86.07257813 315.19853516 86.07257813 315.46484375 87.421875 C315.92368488 89.63235053 316.43336074 91.81512068 317 94 C306.65054134 98.79216179 293.13751306 98.22570082 281.9375 98.4375 C280.98697754 98.47182129 280.03645508 98.50614258 279.05712891 98.54150391 C273.00752753 98.57869626 269.09531662 97.50587334 263.99926758 94.21264648 C256.77019828 89.82788801 248.01503028 90.67229705 240 92 C230.00805688 94.6227069 221.7226116 100.60156958 216.28125 109.3984375 C213.07780459 115.90299433 211.41507374 122.92463129 210 130 C138.06 130 66.12 130 -8 130 C-9.98 122.08 -9.98 122.08 -12 114 C-16.62120174 104.65256921 -22.59791909 97.70504422 -32.45703125 93.78515625 C-44.23539282 90.14851927 -54.06287392 90.53867932 -65.25 95.625 C-72.14361809 99.29504797 -76.28619198 103.9254617 -80.09375 110.63891602 C-80.7228125 111.74807373 -81.351875 112.85723145 -82 114 C-87.65174271 114.15074406 -93.30226194 114.25831772 -98.95556641 114.32958984 C-100.86983675 114.35936525 -102.78397572 114.40000037 -104.69775391 114.45263672 C-118.17408772 114.81342046 -129.58945736 113.52884166 -142 108 C-144 106 -144 106 -144.22705078 103.38623047 C-144.21657715 102.30744629 -144.20610352 101.22866211 -144.1953125 100.1171875 C-144.18886719 98.95058594 -144.18242187 97.78398437 -144.17578125 96.58203125 C-144.15902344 95.35871094 -144.14226562 94.13539063 -144.125 92.875 C-144.11597656 91.64394531 -144.10695312 90.41289062 -144.09765625 89.14453125 C-144.07402548 86.09616185 -144.04108054 83.04817618 -144 80 C-143.07767578 79.82694336 -143.07767578 79.82694336 -142.13671875 79.65039062 C-141.32847656 79.48732422 -140.52023438 79.32425781 -139.6875 79.15625 C-138.88699219 78.99962891 -138.08648437 78.84300781 -137.26171875 78.68164062 C-133.89239298 77.66618752 -132.15820624 75.6977578 -130 73 C-128.66172099 70.32344199 -128.79421444 68.17565948 -128.75 65.1875 C-128.72421875 64.14980469 -128.6984375 63.11210937 -128.671875 62.04296875 C-129.04419441 58.59014946 -129.96126546 56.78187039 -132 54 C-135.53884503 51.32195512 -138.62094986 50.50919188 -143 50 C-142.25 42.25 -142.25 42.25 -140 40 C-137.58308983 39.73828697 -137.58308983 39.73828697 -134.48251343 39.7215271 C-133.31019669 39.71036362 -132.13787994 39.69920013 -130.93003845 39.68769836 C-128.9911953 39.68445808 -128.9911953 39.68445808 -127.01318359 39.68115234 C-125.64344182 39.67185795 -124.27370574 39.66169002 -122.90397644 39.65071106 C-119.17901916 39.62334168 -115.45409983 39.60824123 -111.72906828 39.59528303 C-107.83859099 39.57968271 -103.94819158 39.55288269 -100.05776978 39.5272522 C-92.6878028 39.48040934 -85.31782126 39.44369197 -77.94778121 39.41057932 C-69.5584873 39.37239675 -61.1692715 39.32297653 -52.78004336 39.27259517 C-35.52007957 39.16919342 -18.26008349 39.0814436 -1 39 C-0.67 26.13 -0.34 13.26 0 0 Z M10 12 C8.92504762 20.94862959 10.46803102 28.4599177 14.8125 36.25 C19.83277345 42.56120091 25.97068764 46.82080503 34 48 C37.3476386 48.15441341 40.69216579 48.16396081 44.04296875 48.16796875 C45.00777664 48.17129715 45.97258453 48.17462555 46.96662903 48.17805481 C48.99980188 48.18310577 51.03298299 48.1854637 53.06616211 48.18530273 C56.18682282 48.18749952 59.30713568 48.20570261 62.42773438 48.22460938 C64.40364462 48.22754154 66.37955655 48.22952752 68.35546875 48.23046875 C69.2919072 48.23765427 70.22834564 48.24483978 71.19316101 48.25224304 C72.49009636 48.2476281 72.49009636 48.2476281 73.81323242 48.24291992 C74.95643196 48.24505745 74.95643196 48.24505745 76.12272644 48.24723816 C78.24421941 48.1615965 78.24421941 48.1615965 80 46 C80.1995697 43.44249547 80.27986826 40.99561859 80.265625 38.4375 C80.26753845 37.69040771 80.2694519 36.94331543 80.27142334 36.17358398 C80.27278498 34.59325829 80.26909 33.01292142 80.26074219 31.43261719 C80.250042 29.00951078 80.26063779 26.58714577 80.2734375 24.1640625 C80.2721159 22.63020669 80.2695535 21.09635135 80.265625 19.5625 C80.26967346 18.83538818 80.27372192 18.10827637 80.27789307 17.35913086 C80.36731502 13.22530367 80.36731502 13.22530367 78 10 C75.14038489 9.69235047 75.14038489 9.69235047 71.74609375 9.74121094 C69.77394897 9.73175446 69.77394897 9.73175446 67.76196289 9.72210693 C66.3204739 9.7256866 64.87898613 9.72978854 63.4375 9.734375 C61.96541276 9.73302832 60.49332595 9.73108777 59.02124023 9.72857666 C55.93436452 9.72562551 52.84760447 9.72992268 49.76074219 9.73925781 C45.79927871 9.75065244 41.83808622 9.74409291 37.87663269 9.73211288 C34.83636423 9.724894 31.79616027 9.72718232 28.75588989 9.73236847 C27.2950131 9.73370489 25.8341305 9.7320575 24.3732605 9.72740936 C22.33347685 9.72234394 20.29367274 9.73143021 18.25390625 9.74121094 C17.09189697 9.74280212 15.9298877 9.74439331 14.73266602 9.74603271 C11.85405385 9.72018758 11.85405385 9.72018758 10 12 Z M90 12 C89.78821118 14.5572794 89.69601131 17.00363314 89.69921875 19.5625 C89.69493362 20.30959229 89.6906485 21.05668457 89.68623352 21.82641602 C89.68048787 23.40672796 89.6799917 24.98706636 89.68432617 26.56738281 C89.68748785 28.99069088 89.66402592 31.41278035 89.63867188 33.8359375 C89.63639913 35.36979012 89.63569527 36.90364604 89.63671875 38.4375 C89.627509 39.16461182 89.61829926 39.89172363 89.60881042 40.64086914 C89.59484087 42.90143342 89.59484087 42.90143342 90 46 C93.82628408 48.55085605 96.93619102 48.28826678 101.37109375 48.2746582 C102.22502716 48.27976913 103.07896057 48.28488007 103.95877075 48.29014587 C106.78508486 48.3040608 109.61115568 48.30308386 112.4375 48.30078125 C114.39900809 48.30466677 116.36051534 48.30900114 118.32202148 48.31376648 C122.43443529 48.32123251 126.54676326 48.32093437 130.65917969 48.31567383 C135.93549485 48.30987479 141.21145949 48.32681887 146.48771667 48.3500185 C150.53855451 48.36473132 154.58930742 48.36563096 158.64016724 48.36250877 C160.58587336 48.36302309 162.53158411 48.36828148 164.4772644 48.37832069 C167.19471203 48.39062211 169.91147012 48.38393181 172.62890625 48.37231445 C173.43627228 48.37995819 174.24363831 48.38760193 175.07546997 48.39547729 C179.34195109 48.40201764 179.34195109 48.40201764 183.02319336 46.47673035 C183.34553955 45.98940933 183.66788574 45.50208832 184 45 C180.93165677 41.66258525 177.71662131 39.42997279 173.8359375 37.1015625 C173.24382477 36.74411957 172.65171204 36.38667664 172.04165649 36.0184021 C170.15599549 34.88180239 168.26564039 33.75329319 166.375 32.625 C165.12858669 31.87553119 163.88249003 31.12553552 162.63671875 30.375 C160.21320772 28.91571771 157.78614558 27.46262227 155.35644531 26.01367188 C153.27386731 24.76424626 151.19871704 23.50223745 149.13574219 22.22070312 C139.30022155 16.13293893 128.45324913 12.66945665 117 11 C116.23945313 10.88914063 115.47890625 10.77828125 114.6953125 10.6640625 C101.5135912 8.57879284 101.5135912 8.57879284 90 12 Z " fill="#000000" transform="translate(171,179)"/>
<path d="M0 0 C7.91579937 4.53183241 13.72198485 12.22912485 16.6015625 20.90234375 C18.72777871 31.18198411 16.85854877 40.37570597 11.82421875 49.4375 C6.97482147 56.71159592 -0.61077298 60.90269848 -8.92578125 63.1875 C-20.85973308 64.26477349 -29.66892072 62.77248142 -38.91796875 55.0703125 C-45.31015784 49.0760807 -48.46071762 42.3542435 -49.24609375 33.62890625 C-49.56099895 23.2055441 -48.02933768 14.58770145 -40.76171875 6.78515625 C-29.45045881 -3.05804654 -13.89875024 -6.61626458 0 0 Z M-27.80078125 20.875 C-30.30081808 24.77211623 -31.22882293 27.57948382 -30.92578125 32.1875 C-29.0301227 38.50636183 -26.23113024 41.31149111 -20.61328125 44.5 C-16.86281145 45.45942251 -13.5953933 45.28838362 -9.92578125 44.1875 C-4.94115946 40.98981809 -2.56568343 37.8789252 -0.92578125 32.1875 C-0.63083791 27.57565869 -1.54760911 24.77700363 -4.05078125 20.875 C-11.68681043 13.73697272 -20.16475207 13.73697272 -27.80078125 20.875 Z " fill="#000000" transform="translate(435.92578125,277.8125)"/>
<path d="M0 0 C8.03892708 5.72491817 12.52551806 12.03026053 14.77734375 21.67578125 C16.06410881 33.23067153 13.89418699 42.72661739 6.61328125 51.85546875 C-0.05308698 58.46510193 -8.66786152 61.94552339 -17.97265625 62.05078125 C-27.73190905 61.88641489 -36.26811548 58.69001764 -43.22265625 51.67578125 C-50.00512051 42.42148557 -52.0861294 34.06540326 -51.22265625 22.67578125 C-49.68121592 14.29500905 -45.05576216 6.68695881 -38.47265625 1.30078125 C-27.34167648 -6.28852314 -11.62800466 -6.92775673 0 0 Z M-30.09765625 19.36328125 C-32.59769308 23.26039748 -33.52569793 26.06776507 -33.22265625 30.67578125 C-31.3269977 36.99464308 -28.52800524 39.79977236 -22.91015625 42.98828125 C-19.15968645 43.94770376 -15.8922683 43.77666487 -12.22265625 42.67578125 C-7.23803446 39.47809934 -4.86255843 36.36720645 -3.22265625 30.67578125 C-2.92771291 26.06393994 -3.84448411 23.26528488 -6.34765625 19.36328125 C-13.98368543 12.22525397 -22.46162707 12.22525397 -30.09765625 19.36328125 Z " fill="#000000" transform="translate(142.22265625,279.32421875)"/>
<path d="M0 0 C19.14 0 38.28 0 58 0 C58 8.58 58 17.16 58 26 C52.0218423 26.09212914 46.04617464 26.17167718 40.06787109 26.21972656 C38.03686143 26.23976836 36.00590894 26.26700947 33.97509766 26.30175781 C31.04575444 26.35060414 28.117178 26.37304343 25.1875 26.390625 C24.28821777 26.41127014 23.38893555 26.43191528 22.46240234 26.45318604 C15.51558518 26.45562568 9.97541183 24.94153617 4.94140625 19.96484375 C4.48636719 19.29582031 4.03132812 18.62679687 3.5625 17.9375 C3.08941406 17.26589844 2.61632812 16.59429687 2.12890625 15.90234375 C-1.13618356 10.400272 0 7.38270938 0 0 Z " fill="#000000" transform="translate(187,195)"/>
<path d="M0 0 C19.67569149 -0.62962213 35.88739751 2.01902904 53 12 C53.73541016 12.4218457 54.47082031 12.84369141 55.22851562 13.27832031 C57.47878916 14.58025056 59.71126433 15.90742858 61.9375 17.25 C62.63061279 17.6620166 63.32372559 18.0740332 64.0378418 18.49853516 C68.88160622 21.52642489 68.88160622 21.52642489 70 26 C46.9 26 23.8 26 0 26 C0 17.42 0 8.84 0 0 Z " fill="#000000" transform="translate(267,195)"/>
<path d="M0 0 C-0.94143205 17.36779812 -0.94143205 17.36779812 -7.3125 23.875 C-14.7955565 29.83654778 -24.80438355 30.17140952 -34 30 C-34.24234375 28.92621094 -34.4846875 27.85242188 -34.734375 26.74609375 C-35.07233609 25.3097591 -35.41091065 23.87356871 -35.75 22.4375 C-35.98589844 21.38079102 -35.98589844 21.38079102 -36.2265625 20.30273438 C-37.11872499 16.57967168 -38.17211113 13.45923968 -40.140625 10.16015625 C-42 7 -42 7 -42 4 C-39.04672416 3.01557472 -36.71657436 2.74676954 -33.625 2.53515625 C-32.55636719 2.45716797 -31.48773438 2.37917969 -30.38671875 2.29882812 C-28.16027542 2.14346501 -25.93371494 1.98977 -23.70703125 1.83789062 C-17.43414441 1.37697958 -11.39384935 0.63105296 -5.2421875 -0.69750977 C-3 -1 -3 -1 0 0 Z " fill="#000000" transform="translate(493,279)"/>
<path d="M0 0 C1.32 0.33 2.64 0.66 4 1 C4.02465504 5.39656173 4.04283842 9.7930872 4.05493164 14.18969727 C4.05997121 15.68644918 4.06680287 17.18319616 4.07543945 18.67993164 C4.08752159 20.82699807 4.09323191 22.97399962 4.09765625 25.12109375 C4.10551147 27.06133423 4.10551147 27.06133423 4.11352539 29.04077148 C4 32 4 32 3 33 C0.13732433 33.07325168 -2.700719 33.09238205 -5.5625 33.0625 C-6.36880859 33.05798828 -7.17511719 33.05347656 -8.00585938 33.04882812 C-10.00393756 33.03700518 -12.00197783 33.01906914 -14 33 C-14.99085658 30.3894374 -15.07272416 29.21572063 -14.16723633 26.52978516 C-13.72661865 25.62534668 -13.28600098 24.7209082 -12.83203125 23.7890625 C-12.10983398 22.29246094 -12.10983398 22.29246094 -11.37304688 20.765625 C-10.85806641 19.72921875 -10.34308594 18.6928125 -9.8125 17.625 C-9.31685547 16.59632813 -8.82121094 15.56765625 -8.31054688 14.5078125 C-5.83164206 9.42556642 -3.30574691 4.59175346 0 0 Z " fill="#000000" transform="translate(164,183)"/>
<path d="M0 0 C4.0617589 -0.20364742 8.1222056 -0.32774825 12.1875 -0.4375 C13.33798828 -0.49615234 14.48847656 -0.55480469 15.67382812 -0.61523438 C23.99206146 -0.78401012 23.99206146 -0.78401012 26.88793945 1.46850586 C29.55213288 5.07536246 30.66981736 8.48750389 31 13 C27.38521286 14.80739357 23.16767454 14.22756068 19.1875 14.25 C18.28451172 14.270625 17.38152344 14.29125 16.45117188 14.3125 C11.50600616 14.34156784 7.93736563 14.34262016 4 11 C2.3828125 9.0625 2.3828125 9.0625 1.125 7 C0.47917969 5.9790625 0.47917969 5.9790625 -0.1796875 4.9375 C-1 3 -1 3 0 0 Z " fill="#000000" transform="translate(453,241)"/>
<path d="M0 0 C8 0 8 0 10.46875 0.9375 C12.99120069 4.33508664 12.57758796 7.88783824 12.5 12 C12.51546875 12.81984375 12.5309375 13.6396875 12.546875 14.484375 C12.50876817 20.31472043 12.50876817 20.31472043 10.46875 23.0625 C8 24 8 24 0 24 C0 16.08 0 8.16 0 0 Z " fill="#000000" transform="translate(27,232)"/>
</svg>
